<svg xmlns="http://www.w3.org/2000/svg" xmlns:xlink="http://www.w3.org/1999/xlink" contentStyleType="text/css" data-diagram-type="CLASS" height="1446px" preserveAspectRatio="none" style="width:1676px;height:1446px;background:#FFFFFF;" version="1.1" viewBox="0 0 1676 1446" width="1676px" zoomAndPan="magnify"><?plantuml 1.2026.3beta4?><defs/><g><g class="title" data-source-line="5"><text fill="#000000" font-family="Verdana" font-size="22" font-weight="700" lengthAdjust="spacing" textLength="1192.5654" x="240.8482" y="35.4209">Syst&#232;me de Gestion des Pharmacies de Garde - Diagramme de Classes (Architecture Am&#233;lior&#233;e)</text></g><!--class TypeFichier--><g class="entity" data-qualified-name="TypeFichier" data-source-line="8" id="ent0002"><rect fill="#FFFFFF" height="92.8906" rx="2.5" ry="2.5" style="stroke:#000000;stroke-width:1;" width="109.1084" x="1369.77" y="107.4994"/><ellipse cx="1382.77" cy="121.4994" fill="#FFFFFF" rx="9" ry="9" style="stroke:#000000;stroke-width:1;"/><path d="M1386.8794,127.4994 L1379.1606,127.4994 L1379.1606,115.1087 L1386.8794,115.1087 L1386.8794,117.265 L1381.6138,117.265 L1381.6138,119.9369 L1386.3794,119.9369 L1386.3794,122.0931 L1381.6138,122.0931 L1381.6138,125.3431 L1386.8794,125.3431 L1386.8794,127.4994 Z " fill="#000000"/><text fill="#000000" font-family="Verdana" font-size="14" lengthAdjust="spacing" textLength="81.1084" x="1394.77" y="126.3461">TypeFichier</text><line style="stroke:#000000;stroke-width:1;" x1="1370.77" x2="1477.8784" y1="135.4994" y2="135.4994"/><text fill="#000000" font-family="Verdana" font-size="14" lengthAdjust="spacing" textLength="28.2393" x="1375.77" y="152.4945">CSV</text><text fill="#000000" font-family="Verdana" font-size="14" lengthAdjust="spacing" textLength="35.8682" x="1375.77" y="168.7914">XLSX</text><text fill="#000000" font-family="Verdana" font-size="14" lengthAdjust="spacing" textLength="26.2773" x="1375.77" y="185.0882">XLS</text><line style="stroke:#000000;stroke-width:1;" x1="1370.77" x2="1477.8784" y1="192.39" y2="192.39"/></g><!--class StatutPublication--><g class="entity" data-qualified-name="StatutPublication" data-source-line="14" id="ent0003"><rect fill="#FFFFFF" height="125.4844" rx="2.5" ry="2.5" style="stroke:#000000;stroke-width:1;" width="147.8818" x="1513.38" y="91.1994"/><ellipse cx="1526.38" cy="105.1994" fill="#FFFFFF" rx="9" ry="9" style="stroke:#000000;stroke-width:1;"/><path d="M1530.4894,111.1994 L1522.7706,111.1994 L1522.7706,98.8087 L1530.4894,98.8087 L1530.4894,100.965 L1525.2238,100.965 L1525.2238,103.6369 L1529.9894,103.6369 L1529.9894,105.7931 L1525.2238,105.7931 L1525.2238,109.0431 L1530.4894,109.0431 L1530.4894,111.1994 Z " fill="#000000"/><text fill="#000000" font-family="Verdana" font-size="14" lengthAdjust="spacing" textLength="119.8818" x="1538.38" y="110.0461">StatutPublication</text><line style="stroke:#000000;stroke-width:1;" x1="1514.38" x2="1660.2618" y1="119.1994" y2="119.1994"/><text fill="#000000" font-family="Verdana" font-size="14" lengthAdjust="spacing" textLength="46.9766" x="1519.38" y="136.1945">BRUTE</text><text fill="#000000" font-family="Verdana" font-size="14" lengthAdjust="spacing" textLength="59.5547" x="1519.38" y="152.4914">VALIDEE</text><text fill="#000000" font-family="Verdana" font-size="14" lengthAdjust="spacing" textLength="79.9805" x="1519.38" y="168.7882">GEOCODEE</text><text fill="#000000" font-family="Verdana" font-size="14" lengthAdjust="spacing" textLength="57.9141" x="1519.38" y="185.0851">PUBLIEE</text><text fill="#000000" font-family="Verdana" font-size="14" lengthAdjust="spacing" textLength="57.791" x="1519.38" y="201.382">REJETEE</text><line style="stroke:#000000;stroke-width:1;" x1="1514.38" x2="1660.2618" y1="208.6837" y2="208.6837"/></g><!--class TypeGarde--><g class="entity" data-qualified-name="TypeGarde" data-source-line="22" id="ent0004"><rect fill="#FFFFFF" height="109.1875" rx="2.5" ry="2.5" style="stroke:#000000;stroke-width:1;" width="109.084" x="1369.78" y="358.1694"/><ellipse cx="1384.6086" cy="372.1694" fill="#FFFFFF" rx="9" ry="9" style="stroke:#000000;stroke-width:1;"/><path d="M1388.7179,378.1694 L1380.9992,378.1694 L1380.9992,365.7787 L1388.7179,365.7787 L1388.7179,367.935 L1383.4523,367.935 L1383.4523,370.6069 L1388.2179,370.6069 L1388.2179,372.7631 L1383.4523,372.7631 L1383.4523,376.0131 L1388.7179,376.0131 L1388.7179,378.1694 Z " fill="#000000"/><text fill="#000000" font-family="Verdana" font-size="14" lengthAdjust="spacing" textLength="77.0205" x="1397.0149" y="377.0161">TypeGarde</text><line style="stroke:#000000;stroke-width:1;" x1="1370.78" x2="1477.864" y1="386.1694" y2="386.1694"/><text fill="#000000" font-family="Verdana" font-size="14" lengthAdjust="spacing" textLength="33.4004" x="1375.78" y="403.1645">NUIT</text><text fill="#000000" font-family="Verdana" font-size="14" lengthAdjust="spacing" textLength="70.8135" x="1375.78" y="419.4614">WEEKEND</text><text fill="#000000" font-family="Verdana" font-size="14" lengthAdjust="spacing" textLength="81.7236" x="1375.78" y="435.7582">JOUR_FERIE</text><text fill="#000000" font-family="Verdana" font-size="14" lengthAdjust="spacing" textLength="97.084" x="1375.78" y="452.0551">PERMANENCE</text><line style="stroke:#000000;stroke-width:1;" x1="1370.78" x2="1477.864" y1="459.3569" y2="459.3569"/></g><!--class Administrateur--><g class="entity" data-qualified-name="Administrateur" data-source-line="30" id="ent0005"><rect fill="#FFFFFF" height="190.6719" rx="2.5" ry="2.5" style="stroke:#000000;stroke-width:1;" width="315.96" x="887.34" y="58.6094"/><ellipse cx="989.2682" cy="72.6094" fill="#FFFFFF" rx="9" ry="9" style="stroke:#000000;stroke-width:1;"/><path d="M992.237,78.25 Q991.6588,78.5469 991.0182,78.6875 Q990.3776,78.8438 989.6745,78.8438 Q987.1745,78.8438 985.8463,77.2031 Q984.5338,75.5469 984.5338,72.4219 Q984.5338,69.2969 985.8463,67.6406 Q987.1745,65.9844 989.6745,65.9844 Q990.3776,65.9844 991.0182,66.1406 Q991.6745,66.2969 992.237,66.5938 L992.237,69.3125 Q991.612,68.7344 991.0182,68.4688 Q990.4245,68.1875 989.7995,68.1875 Q988.4557,68.1875 987.7682,69.2656 Q987.0807,70.3281 987.0807,72.4219 Q987.0807,74.5156 987.7682,75.5938 Q988.4557,76.6563 989.7995,76.6563 Q990.4245,76.6563 991.0182,76.3906 Q991.612,76.1094 992.237,75.5313 L992.237,78.25 Z " fill="#000000"/><text fill="#000000" font-family="Verdana" font-size="14" lengthAdjust="spacing" textLength="104.6035" x="1006.7682" y="77.4561">Administrateur</text><line style="stroke:#000000;stroke-width:1;" x1="888.34" x2="1202.3" y1="86.6094" y2="86.6094"/><text fill="#000000" font-family="Verdana" font-size="14" lengthAdjust="spacing" textLength="61.1201" x="893.34" y="103.6045">-id: Long</text><text fill="#000000" font-family="Verdana" font-size="14" lengthAdjust="spacing" textLength="159.0859" x="893.34" y="119.9014">-nomUtilisateur: String</text><text fill="#000000" font-family="Verdana" font-size="14" lengthAdjust="spacing" textLength="94.6094" x="893.34" y="136.1982">-email: String</text><text fill="#000000" font-family="Verdana" font-size="14" lengthAdjust="spacing" textLength="143.3086" x="893.34" y="152.4951">-motDePasse: String</text><text fill="#000000" font-family="Verdana" font-size="14" lengthAdjust="spacing" textLength="82.8242" x="893.34" y="168.792">-role: String</text><line style="stroke:#000000;stroke-width:1;" x1="888.34" x2="1202.3" y1="176.0938" y2="176.0938"/><text fill="#000000" font-family="Verdana" font-size="14" lengthAdjust="spacing" textLength="233.1602" x="893.34" y="193.0889">+uploadFichier(fichier: File): void</text><text fill="#000000" font-family="Verdana" font-size="14" lengthAdjust="spacing" textLength="270.915" x="893.34" y="209.3857">+validerDonnees(fichierId: Long): void</text><text fill="#000000" font-family="Verdana" font-size="14" lengthAdjust="spacing" textLength="171.8555" x="893.34" y="225.6826">+publierDonnees(): void</text><text fill="#000000" font-family="Verdana" font-size="14" lengthAdjust="spacing" textLength="303.96" x="893.34" y="241.9795">+gererPharmacie(pharmacieId: Long): void</text></g><!--class FichierSource--><g class="entity" data-qualified-name="FichierSource" data-source-line="42" id="ent0006"><rect fill="#FFFFFF" height="206.9688" rx="2.5" ry="2.5" style="stroke:#000000;stroke-width:1;" width="213.8447" x="938.4" y="309.2794"/><ellipse cx="993.9908" cy="323.2794" fill="#FFFFFF" rx="9" ry="9" style="stroke:#000000;stroke-width:1;"/><path d="M996.9596,328.92 Q996.3814,329.2169 995.7408,329.3575 Q995.1002,329.5137 994.3971,329.5137 Q991.8971,329.5137 990.5689,327.8731 Q989.2564,326.2169 989.2564,323.0919 Q989.2564,319.9669 990.5689,318.3106 Q991.8971,316.6544 994.3971,316.6544 Q995.1002,316.6544 995.7408,316.8106 Q996.3971,316.9669 996.9596,317.2637 L996.9596,319.9825 Q996.3346,319.4044 995.7408,319.1387 Q995.1471,318.8575 994.5221,318.8575 Q993.1783,318.8575 992.4908,319.9356 Q991.8033,320.9981 991.8033,323.0919 Q991.8033,325.1856 992.4908,326.2637 Q993.1783,327.3262 994.5221,327.3262 Q995.1471,327.3262 995.7408,327.0606 Q996.3346,326.7794 996.9596,326.2012 L996.9596,328.92 Z " fill="#000000"/><text fill="#000000" font-family="Verdana" font-size="14" lengthAdjust="spacing" textLength="95.1631" x="1011.4908" y="328.1261">FichierSource</text><line style="stroke:#000000;stroke-width:1;" x1="939.4" x2="1151.2447" y1="337.2794" y2="337.2794"/><text fill="#000000" font-family="Verdana" font-size="14" lengthAdjust="spacing" textLength="61.1201" x="944.4" y="354.2745">-id: Long</text><text fill="#000000" font-family="Verdana" font-size="14" lengthAdjust="spacing" textLength="133.8477" x="944.4" y="370.5714">-nomFichier: String</text><text fill="#000000" font-family="Verdana" font-size="14" lengthAdjust="spacing" textLength="173.373" x="944.4" y="386.8682">-typeFichier: TypeFichier</text><text fill="#000000" font-family="Verdana" font-size="14" lengthAdjust="spacing" textLength="82.6943" x="944.4" y="403.1651">-taille: Long</text><text fill="#000000" font-family="Verdana" font-size="14" lengthAdjust="spacing" textLength="128.3037" x="944.4" y="419.462">-dateUpload: Date</text><text fill="#000000" font-family="Verdana" font-size="14" lengthAdjust="spacing" textLength="143.958" x="944.4" y="435.7589">-uploadedPar: String</text><text fill="#000000" font-family="Verdana" font-size="14" lengthAdjust="spacing" textLength="172.4092" x="944.4" y="452.0557">-cheminStockage: String</text><text fill="#000000" font-family="Verdana" font-size="14" lengthAdjust="spacing" textLength="97.2139" x="944.4" y="468.3526">-statut: String</text><line style="stroke:#000000;stroke-width:1;" x1="939.4" x2="1151.2447" y1="475.6544" y2="475.6544"/><text fill="#000000" font-family="Verdana" font-size="14" lengthAdjust="spacing" textLength="201.8447" x="944.4" y="492.6495">+validerStructure(): Boolean</text><text fill="#000000" font-family="Verdana" font-size="14" lengthAdjust="spacing" textLength="169.8867" x="944.4" y="508.9464">+getNbLignes(): Integer</text></g><!--class ImportLog--><g class="entity" data-qualified-name="ImportLog" data-source-line="55" id="ent0007"><rect fill="#FFFFFF" height="190.6719" rx="2.5" ry="2.5" style="stroke:#000000;stroke-width:1;" width="178.8789" x="1193.88" y="641.4294"/><ellipse cx="1243.7115" cy="655.4294" fill="#FFFFFF" rx="9" ry="9" style="stroke:#000000;stroke-width:1;"/><path d="M1246.6803,661.07 Q1246.1022,661.3669 1245.4615,661.5075 Q1244.8209,661.6637 1244.1178,661.6637 Q1241.6178,661.6637 1240.2897,660.0231 Q1238.9772,658.3669 1238.9772,655.2419 Q1238.9772,652.1169 1240.2897,650.4606 Q1241.6178,648.8044 1244.1178,648.8044 Q1244.8209,648.8044 1245.4615,648.9606 Q1246.1178,649.1169 1246.6803,649.4137 L1246.6803,652.1325 Q1246.0553,651.5544 1245.4615,651.2887 Q1244.8678,651.0075 1244.2428,651.0075 Q1242.899,651.0075 1242.2115,652.0856 Q1241.524,653.1481 1241.524,655.2419 Q1241.524,657.3356 1242.2115,658.4137 Q1242.899,659.4762 1244.2428,659.4762 Q1244.8678,659.4762 1245.4615,659.2106 Q1246.0553,658.9294 1246.6803,658.3512 L1246.6803,661.07 Z " fill="#000000"/><text fill="#000000" font-family="Verdana" font-size="14" lengthAdjust="spacing" textLength="71.7158" x="1261.2115" y="660.2761">ImportLog</text><line style="stroke:#000000;stroke-width:1;" x1="1194.88" x2="1371.7589" y1="669.4294" y2="669.4294"/><text fill="#000000" font-family="Verdana" font-size="14" lengthAdjust="spacing" textLength="61.1201" x="1199.88" y="686.4245">-id: Long</text><text fill="#000000" font-family="Verdana" font-size="14" lengthAdjust="spacing" textLength="105.0068" x="1199.88" y="702.7214">-fichierId: Long</text><text fill="#000000" font-family="Verdana" font-size="14" lengthAdjust="spacing" textLength="156.7412" x="1199.88" y="719.0182">-dateTraitement: Date</text><text fill="#000000" font-family="Verdana" font-size="14" lengthAdjust="spacing" textLength="157.0078" x="1199.88" y="735.3151">-lignesTotales: Integer</text><text fill="#000000" font-family="Verdana" font-size="14" lengthAdjust="spacing" textLength="156.7549" x="1199.88" y="751.612">-lignesValides: Integer</text><text fill="#000000" font-family="Verdana" font-size="14" lengthAdjust="spacing" textLength="166.8789" x="1199.88" y="767.9089">-lignesRejetees: Integer</text><text fill="#000000" font-family="Verdana" font-size="14" lengthAdjust="spacing" textLength="166.5781" x="1199.88" y="784.2057">-dureeTraitement: Long</text><text fill="#000000" font-family="Verdana" font-size="14" lengthAdjust="spacing" textLength="97.2139" x="1199.88" y="800.5026">-statut: String</text><line style="stroke:#000000;stroke-width:1;" x1="1194.88" x2="1371.7589" y1="807.8044" y2="807.8044"/><text fill="#000000" font-family="Verdana" font-size="14" lengthAdjust="spacing" textLength="153.3506" x="1199.88" y="824.7995">+getResume(): String</text></g><!--class PharmacieBrute--><g class="entity" data-qualified-name="PharmacieBrute" data-source-line="67" id="ent0008"><rect fill="#FFFFFF" height="321.0469" rx="2.5" ry="2.5" style="stroke:#000000;stroke-width:1;" width="290.1338" x="663.26" y="576.2494"/><ellipse cx="748.3752" cy="590.2494" fill="#FFFFFF" rx="9" ry="9" style="stroke:#000000;stroke-width:1;"/><path d="M751.344,595.89 Q750.7659,596.1869 750.1252,596.3275 Q749.4846,596.4837 748.7815,596.4837 Q746.2815,596.4837 744.9534,594.8431 Q743.6409,593.1869 743.6409,590.0619 Q743.6409,586.9369 744.9534,585.2806 Q746.2815,583.6244 748.7815,583.6244 Q749.4846,583.6244 750.1252,583.7806 Q750.7815,583.9369 751.344,584.2337 L751.344,586.9525 Q750.719,586.3744 750.1252,586.1087 Q749.5315,585.8275 748.9065,585.8275 Q747.5627,585.8275 746.8752,586.9056 Q746.1877,587.9681 746.1877,590.0619 Q746.1877,592.1556 746.8752,593.2337 Q747.5627,594.2962 748.9065,594.2962 Q749.5315,594.2962 750.1252,594.0306 Q750.719,593.7494 751.344,593.1712 L751.344,595.89 Z " fill="#000000"/><text fill="#000000" font-family="Verdana" font-size="14" lengthAdjust="spacing" textLength="112.4033" x="765.8752" y="595.0961">PharmacieBrute</text><line style="stroke:#000000;stroke-width:1;" x1="664.26" x2="952.3938" y1="604.2494" y2="604.2494"/><text fill="#000000" font-family="Verdana" font-size="14" lengthAdjust="spacing" textLength="61.1201" x="669.26" y="621.2445">-id: Long</text><text fill="#000000" font-family="Verdana" font-size="14" lengthAdjust="spacing" textLength="153.3984" x="669.26" y="637.5414">-fichierSourceId: Long</text><text fill="#000000" font-family="Verdana" font-size="14" lengthAdjust="spacing" textLength="87.0762" x="669.26" y="653.8382">-nom: String</text><text fill="#000000" font-family="Verdana" font-size="14" lengthAdjust="spacing" textLength="178.5068" x="669.26" y="670.1351">-adresseComplete: String</text><text fill="#000000" font-family="Verdana" font-size="14" lengthAdjust="spacing" textLength="126.417" x="669.26" y="686.432">-telephone: String</text><text fill="#000000" font-family="Verdana" font-size="14" lengthAdjust="spacing" textLength="84.5674" x="669.26" y="702.7289">-ville: String</text><text fill="#000000" font-family="Verdana" font-size="14" lengthAdjust="spacing" textLength="132.0225" x="669.26" y="719.0257">-codePostal: String</text><text fill="#000000" font-family="Verdana" font-size="14" lengthAdjust="spacing" textLength="134.0254" x="669.26" y="735.3226">-numLigne: Integer</text><text fill="#000000" font-family="Verdana" font-size="14" lengthAdjust="spacing" textLength="164.5752" x="669.26" y="771.9164">-dateDebutGarde: Date</text><text fill="#000000" font-family="Verdana" font-size="14" lengthAdjust="spacing" textLength="142.748" x="669.26" y="788.2132">-dateFinGarde: Date</text><text fill="#000000" font-family="Verdana" font-size="14" lengthAdjust="spacing" textLength="185.0352" x="669.26" y="804.5101">-typeGardeImporte: String</text><line style="stroke:#000000;stroke-width:1;" x1="664.26" x2="705.2615" y1="750.7728" y2="750.7728"/><text fill="#000000" font-family="Verdana" font-size="14" lengthAdjust="spacing" textLength="206.1309" x="705.2615" y="755.1195">Donn&#233;es de Garde Import&#233;es</text><line style="stroke:#000000;stroke-width:1;" x1="911.3923" x2="952.3938" y1="750.7728" y2="750.7728"/><text fill="#000000" font-family="Verdana" font-size="14" lengthAdjust="spacing" textLength="113.0527" x="669.26" y="841.1039">-valide: Boolean</text><text fill="#000000" font-family="Verdana" font-size="14" lengthAdjust="spacing" textLength="106.6611" x="669.26" y="857.4007">-erreurs: String</text><text fill="#000000" font-family="Verdana" font-size="14" lengthAdjust="spacing" textLength="174.4736" x="669.26" y="873.6976">+validerLigne(): Boolean</text><text fill="#000000" font-family="Verdana" font-size="14" lengthAdjust="spacing" textLength="278.1338" x="669.26" y="889.9945">+mapperVersPharmacieEtGarde(): void</text><line style="stroke:#000000;stroke-width:1;" x1="664.26" x2="786.0212" y1="819.9603" y2="819.9603"/><text fill="#000000" font-family="Verdana" font-size="14" lengthAdjust="spacing" textLength="44.6113" x="786.0212" y="824.307">Status</text><line style="stroke:#000000;stroke-width:1;" x1="830.6326" x2="952.3938" y1="819.9603" y2="819.9603"/></g><!--class Pharmacie--><g class="entity" data-qualified-name="Pharmacie" data-source-line="87" id="ent0009"><rect fill="#FFFFFF" height="239.5625" rx="2.5" ry="2.5" style="stroke:#000000;stroke-width:1;" width="311.8857" x="220.38" y="957.2894"/><ellipse cx="335.5392" cy="971.2894" fill="#FFFFFF" rx="9" ry="9" style="stroke:#000000;stroke-width:1;"/><path d="M338.5079,976.93 Q337.9298,977.2269 337.2892,977.3675 Q336.6486,977.5237 335.9454,977.5237 Q333.4454,977.5237 332.1173,975.8831 Q330.8048,974.2269 330.8048,971.1019 Q330.8048,967.9769 332.1173,966.3206 Q333.4454,964.6644 335.9454,964.6644 Q336.6486,964.6644 337.2892,964.8206 Q337.9454,964.9769 338.5079,965.2737 L338.5079,967.9925 Q337.8829,967.4144 337.2892,967.1487 Q336.6954,966.8675 336.0704,966.8675 Q334.7267,966.8675 334.0392,967.9456 Q333.3517,969.0081 333.3517,971.1019 Q333.3517,973.1956 334.0392,974.2737 Q334.7267,975.3362 336.0704,975.3362 Q336.6954,975.3362 337.2892,975.0706 Q337.8829,974.7894 338.5079,974.2112 L338.5079,976.93 Z " fill="#000000"/><text fill="#000000" font-family="Verdana" font-size="14" lengthAdjust="spacing" textLength="74.0674" x="353.0392" y="976.1361">Pharmacie</text><line style="stroke:#000000;stroke-width:1;" x1="221.38" x2="531.2657" y1="985.2894" y2="985.2894"/><text fill="#000000" font-family="Verdana" font-size="14" lengthAdjust="spacing" textLength="61.1201" x="226.38" y="1002.2845">-id: Long</text><text fill="#000000" font-family="Verdana" font-size="14" lengthAdjust="spacing" textLength="299.8857" x="226.38" y="1018.5814">-codeEnregistrement: String &#171;Unique Key&#187;</text><text fill="#000000" font-family="Verdana" font-size="14" lengthAdjust="spacing" textLength="87.0762" x="226.38" y="1034.8782">-nom: String</text><text fill="#000000" font-family="Verdana" font-size="14" lengthAdjust="spacing" textLength="111.0361" x="226.38" y="1051.1751">-adresse: String</text><text fill="#000000" font-family="Verdana" font-size="14" lengthAdjust="spacing" textLength="126.417" x="226.38" y="1067.472">-telephone: String</text><text fill="#000000" font-family="Verdana" font-size="14" lengthAdjust="spacing" textLength="117.5371" x="226.38" y="1083.7689">-latitude: Double</text><text fill="#000000" font-family="Verdana" font-size="14" lengthAdjust="spacing" textLength="129.7939" x="226.38" y="1100.0657">-longitude: Double</text><text fill="#000000" font-family="Verdana" font-size="14" lengthAdjust="spacing" textLength="138.79" x="226.38" y="1116.3626">-dateCreation: Date</text><text fill="#000000" font-family="Verdana" font-size="14" lengthAdjust="spacing" textLength="175.3145" x="226.38" y="1132.6595">-statut: StatutPublication</text><line style="stroke:#000000;stroke-width:1;" x1="221.38" x2="531.2657" y1="1139.9612" y2="1139.9612"/><text fill="#000000" font-family="Verdana" font-size="14" lengthAdjust="spacing" textLength="145.127" x="226.38" y="1156.9564">+getDetails(): String</text><text fill="#000000" font-family="Verdana" font-size="14" lengthAdjust="spacing" textLength="161.1162" x="226.38" y="1173.2532">+estPubliee(): Boolean</text><text fill="#000000" font-family="Verdana" font-size="14" lengthAdjust="spacing" textLength="188.9727" x="226.38" y="1189.5501">+getCoordonnees(): String</text></g><!--class Garde--><g class="entity" data-qualified-name="Garde" data-source-line="102" id="ent0010"><rect fill="#FFFFFF" height="174.375" rx="2.5" ry="2.5" style="stroke:#000000;stroke-width:1;" width="177.1973" x="515.72" y="1256.8494"/><ellipse cx="579.2268" cy="1270.8494" fill="#FFFFFF" rx="9" ry="9" style="stroke:#000000;stroke-width:1;"/><path d="M582.1956,1276.49 Q581.6175,1276.7869 580.9768,1276.9275 Q580.3362,1277.0837 579.6331,1277.0837 Q577.1331,1277.0837 575.805,1275.4431 Q574.4925,1273.7869 574.4925,1270.6619 Q574.4925,1267.5369 575.805,1265.8806 Q577.1331,1264.2244 579.6331,1264.2244 Q580.3362,1264.2244 580.9768,1264.3806 Q581.6331,1264.5369 582.1956,1264.8337 L582.1956,1267.5525 Q581.5706,1266.9744 580.9768,1266.7087 Q580.3831,1266.4275 579.7581,1266.4275 Q578.4143,1266.4275 577.7268,1267.5056 Q577.0393,1268.5681 577.0393,1270.6619 Q577.0393,1272.7556 577.7268,1273.8337 Q578.4143,1274.8962 579.7581,1274.8962 Q580.3831,1274.8962 580.9768,1274.6306 Q581.5706,1274.3494 582.1956,1273.7712 L582.1956,1276.49 Z " fill="#000000"/><text fill="#000000" font-family="Verdana" font-size="14" lengthAdjust="spacing" textLength="42.6836" x="596.7268" y="1275.6961">Garde</text><line style="stroke:#000000;stroke-width:1;" x1="516.72" x2="691.9173" y1="1284.8494" y2="1284.8494"/><text fill="#000000" font-family="Verdana" font-size="14" lengthAdjust="spacing" textLength="61.1201" x="521.72" y="1301.8445">-id: Long</text><text fill="#000000" font-family="Verdana" font-size="14" lengthAdjust="spacing" textLength="135.8711" x="521.72" y="1318.1414">-pharmacieId: Long</text><text fill="#000000" font-family="Verdana" font-size="14" lengthAdjust="spacing" textLength="121.8916" x="521.72" y="1334.4382">-dateDebut: Date</text><text fill="#000000" font-family="Verdana" font-size="14" lengthAdjust="spacing" textLength="100.0645" x="521.72" y="1350.7351">-dateFin: Date</text><text fill="#000000" font-family="Verdana" font-size="14" lengthAdjust="spacing" textLength="165.1973" x="521.72" y="1367.032">-typeGarde: TypeGarde</text><text fill="#000000" font-family="Verdana" font-size="14" lengthAdjust="spacing" textLength="154.9297" x="521.72" y="1383.3289">-sourceFichierId: Long</text><line style="stroke:#000000;stroke-width:1;" x1="516.72" x2="691.9173" y1="1390.6306" y2="1390.6306"/><text fill="#000000" font-family="Verdana" font-size="14" lengthAdjust="spacing" textLength="153.46" x="521.72" y="1407.6257">+estActive(): Boolean</text><text fill="#000000" font-family="Verdana" font-size="14" lengthAdjust="spacing" textLength="149.3584" x="521.72" y="1423.9226">+getPeriode(): String</text></g><!--class Ville--><g class="entity" data-qualified-name="Ville" data-source-line="113" id="ent0011"><rect fill="#FFFFFF" height="125.4844" rx="2.5" ry="2.5" style="stroke:#000000;stroke-width:1;" width="172.6445" x="12" y="674.0294"/><ellipse cx="79.6426" cy="688.0294" fill="#FFFFFF" rx="9" ry="9" style="stroke:#000000;stroke-width:1;"/><path d="M82.6113,693.67 Q82.0332,693.9669 81.3926,694.1075 Q80.752,694.2637 80.0488,694.2637 Q77.5488,694.2637 76.2207,692.6231 Q74.9082,690.9669 74.9082,687.8419 Q74.9082,684.7169 76.2207,683.0606 Q77.5488,681.4044 80.0488,681.4044 Q80.752,681.4044 81.3926,681.5606 Q82.0488,681.7169 82.6113,682.0137 L82.6113,684.7325 Q81.9863,684.1544 81.3926,683.8887 Q80.7988,683.6075 80.1738,683.6075 Q78.8301,683.6075 78.1426,684.6856 Q77.4551,685.7481 77.4551,687.8419 Q77.4551,689.9356 78.1426,691.0137 Q78.8301,692.0762 80.1738,692.0762 Q80.7988,692.0762 81.3926,691.8106 Q81.9863,691.5294 82.6113,690.9512 L82.6113,693.67 Z " fill="#000000"/><text fill="#000000" font-family="Verdana" font-size="14" lengthAdjust="spacing" textLength="29.8594" x="97.1426" y="692.8761">Ville</text><line style="stroke:#000000;stroke-width:1;" x1="13" x2="183.6445" y1="702.0294" y2="702.0294"/><text fill="#000000" font-family="Verdana" font-size="14" lengthAdjust="spacing" textLength="61.1201" x="18" y="719.0245">-id: Long</text><text fill="#000000" font-family="Verdana" font-size="14" lengthAdjust="spacing" textLength="87.0762" x="18" y="735.3214">-nom: String</text><text fill="#000000" font-family="Verdana" font-size="14" lengthAdjust="spacing" textLength="132.0225" x="18" y="751.6182">-codePostal: String</text><text fill="#000000" font-family="Verdana" font-size="14" lengthAdjust="spacing" textLength="142.2422" x="18" y="767.9151">-gouvernorat: String</text><line style="stroke:#000000;stroke-width:1;" x1="13" x2="183.6445" y1="775.2169" y2="775.2169"/><text fill="#000000" font-family="Verdana" font-size="14" lengthAdjust="spacing" textLength="160.6445" x="18" y="792.212">+getPharmacies(): List</text></g><!--class Utilisateur--><g class="entity" data-qualified-name="Utilisateur" data-source-line="121" id="ent0012"><rect fill="#FFFFFF" height="141.7813" rx="2.5" ry="2.5" style="stroke:#000000;stroke-width:1;" width="362.2939" x="219.18" y="665.8794"/><ellipse cx="360.5721" cy="679.8794" fill="#FFFFFF" rx="9" ry="9" style="stroke:#000000;stroke-width:1;"/><path d="M363.5408,685.52 Q362.9627,685.8169 362.3221,685.9575 Q361.6815,686.1137 360.9783,686.1137 Q358.4783,686.1137 357.1502,684.4731 Q355.8377,682.8169 355.8377,679.6919 Q355.8377,676.5669 357.1502,674.9106 Q358.4783,673.2544 360.9783,673.2544 Q361.6815,673.2544 362.3221,673.4106 Q362.9783,673.5669 363.5408,673.8637 L363.5408,676.5825 Q362.9158,676.0044 362.3221,675.7387 Q361.7283,675.4575 361.1033,675.4575 Q359.7596,675.4575 359.0721,676.5356 Q358.3846,677.5981 358.3846,679.6919 Q358.3846,681.7856 359.0721,682.8637 Q359.7596,683.9262 361.1033,683.9262 Q361.7283,683.9262 362.3221,683.6606 Q362.9158,683.3794 363.5408,682.8012 L363.5408,685.52 Z " fill="#000000"/><text fill="#000000" font-family="Verdana" font-size="14" lengthAdjust="spacing" textLength="72.0098" x="378.0721" y="684.7261">Utilisateur</text><line style="stroke:#000000;stroke-width:1;" x1="220.18" x2="580.4739" y1="693.8794" y2="693.8794"/><text fill="#000000" font-family="Verdana" font-size="14" lengthAdjust="spacing" textLength="68.7764" x="225.18" y="710.8745">-id: String</text><text fill="#000000" font-family="Verdana" font-size="14" lengthAdjust="spacing" textLength="115.001" x="225.18" y="727.1714">-deviceId: String</text><text fill="#000000" font-family="Verdana" font-size="14" lengthAdjust="spacing" textLength="135.2012" x="225.18" y="743.4682">-localisation: String</text><text fill="#000000" font-family="Verdana" font-size="14" lengthAdjust="spacing" textLength="139.6445" x="225.18" y="759.7651">-preferences: String</text><line style="stroke:#000000;stroke-width:1;" x1="220.18" x2="580.4739" y1="767.0669" y2="767.0669"/><text fill="#000000" font-family="Verdana" font-size="14" lengthAdjust="spacing" textLength="293.4189" x="225.18" y="784.062">+rechercherPharmacies(ville: String): List</text><text fill="#000000" font-family="Verdana" font-size="14" lengthAdjust="spacing" textLength="350.2939" x="225.18" y="800.3589">+consulterDetails(pharmacieId: Long): Pharmacie</text></g><g class="entity" data-qualified-name="GMN21" data-source-line="144" id="ent0022"><path d="M1187.59,377.4994 L1187.59,409.2294 L1152.69,413.2294 L1187.59,417.2294 L1187.59,448.0306 A0,0 0 0 0 1187.59,448.0306 L1335.0607,448.0306 A0,0 0 0 0 1335.0607,448.0306 L1335.0607,387.4994 L1325.0607,377.4994 L1187.59,377.4994 A0,0 0 0 0 1187.59,377.4994" fill="#FFFFFF" style="stroke:#000000;stroke-width:1;"/><path d="M1325.0607,377.4994 L1325.0607,387.4994 L1335.0607,387.4994 L1325.0607,377.4994" fill="#FFFFFF" style="stroke:#000000;stroke-width:1;"/><text fill="#000000" font-family="Verdana" font-size="13" lengthAdjust="spacing" textLength="126.4707" x="1193.59" y="394.5663">Formats support&#233;s:</text><text fill="#000000" font-family="Verdana" font-size="13" lengthAdjust="spacing" textLength="75.0674" x="1193.59" y="409.6991">- CSV (.csv)</text><text fill="#000000" font-family="Verdana" font-size="13" lengthAdjust="spacing" textLength="118.1426" x="1193.59" y="424.8319">- Excel (.xlsx, .xls)</text><text fill="#000000" font-family="Verdana" font-size="13" lengthAdjust="spacing" textLength="115.5527" x="1193.59" y="439.9647">Taille max: 50 Mo</text></g><g class="entity" data-qualified-name="GMN24" data-source-line="151" id="ent0025"><path d="M988.17,701.4994 L988.17,733.2294 L953.61,737.2294 L988.17,741.2294 L988.17,772.0306 A0,0 0 0 0 988.17,772.0306 L1158.4669,772.0306 A0,0 0 0 0 1158.4669,772.0306 L1158.4669,711.4994 L1148.4669,701.4994 L988.17,701.4994 A0,0 0 0 0 988.17,701.4994" fill="#FFFFFF" style="stroke:#000000;stroke-width:1;"/><path d="M1148.4669,701.4994 L1148.4669,711.4994 L1158.4669,711.4994 L1148.4669,701.4994" fill="#FFFFFF" style="stroke:#000000;stroke-width:1;"/><text fill="#000000" font-family="Verdana" font-size="13" lengthAdjust="spacing" textLength="149.2969" x="994.17" y="718.5663">Contient d&#233;sormais les</text><text fill="#000000" font-family="Verdana" font-size="13" lengthAdjust="spacing" textLength="144.3584" x="994.17" y="733.6991">informations de garde</text><text fill="#000000" font-family="Verdana" font-size="13" lengthAdjust="spacing" textLength="129.5176" x="994.17" y="748.8319">extraites de la ligne</text><text fill="#000000" font-family="Verdana" font-size="13" lengthAdjust="spacing" textLength="112.874" x="994.17" y="763.9647">du fichier source.</text></g><g class="entity" data-qualified-name="GMN27" data-source-line="158" id="ent0028"><path d="M567.51,1041.8094 L567.51,1073.2294 L532.65,1077.2294 L567.51,1081.2294 L567.51,1112.3406 A0,0 0 0 0 567.51,1112.3406 L779.1365,1112.3406 A0,0 0 0 0 779.1365,1112.3406 L779.1365,1051.8094 L769.1365,1041.8094 L567.51,1041.8094 A0,0 0 0 0 567.51,1041.8094" fill="#FFFFFF" style="stroke:#000000;stroke-width:1;"/><path d="M769.1365,1041.8094 L769.1365,1051.8094 L779.1365,1051.8094 L769.1365,1041.8094" fill="#FFFFFF" style="stroke:#000000;stroke-width:1;"/><text fill="#000000" font-family="Verdana" font-size="13" lengthAdjust="spacing" textLength="186.4941" x="573.51" y="1058.8763">La cl&#233; unique (ex: nom+ville</text><text fill="#000000" font-family="Verdana" font-size="13" lengthAdjust="spacing" textLength="173.3608" x="573.51" y="1074.0091">ou code d'enregistrement)</text><text fill="#000000" font-family="Verdana" font-size="13" lengthAdjust="spacing" textLength="146.2183" x="573.51" y="1089.1419">emp&#234;che les doublons</text><text fill="#000000" font-family="Verdana" font-size="13" lengthAdjust="spacing" textLength="151.2012" x="573.51" y="1104.2747">lors des imports futurs.</text></g><!--link Administrateur to FichierSource--><g class="link" data-entity-1="ent0005" data-entity-2="ent0006" data-link-type="association" data-source-line="131" id="lnk13"><path codeLine="131" d="M1045.32,249.5794 C1045.32,268.8794 1045.32,289.2494 1045.32,308.8094" fill="none" id="Administrateur-FichierSource" style="stroke:#000000;stroke-width:1;"/><polygon fill="#000000" points="1050.32,275.7658,1053.2589,266.7207,1047.3811,266.7207,1050.32,275.7658" style="stroke:#000000;stroke-width:1;"/><text fill="#000000" font-family="Verdana" font-size="13" lengthAdjust="spacing" textLength="44.2749" x="1059.32" y="275.2663">upload</text><text fill="#000000" font-family="Verdana" font-size="13" lengthAdjust="spacing" textLength="8.271" x="1037.0362" y="269.2251">1</text><text fill="#000000" font-family="Verdana" font-size="13" lengthAdjust="spacing" textLength="23.0356" x="1021.5125" y="298.0443">0..*</text></g><!--link FichierSource to ImportLog--><g class="link" data-entity-1="ent0006" data-entity-2="ent0007" data-link-type="association" data-source-line="132" id="lnk14"><path codeLine="132" d="M1152.65,492.2294 C1208.17,492.2294 1264.47,492.2294 1264.47,492.2294 C1264.47,492.2294 1264.47,572.5894 1264.47,641.1694" fill="none" id="FichierSource-ImportLog" style="stroke:#000000;stroke-width:1;"/><polygon fill="#000000" points="1212.472,506.3543,1209.3916,497.3564,1204.6911,500.8854,1212.472,506.3543" style="stroke:#000000;stroke-width:1;"/><text fill="#000000" font-family="Verdana" font-size="13" lengthAdjust="spacing" textLength="45.8301" x="1218.47" y="506.8563">genere</text><text fill="#000000" font-family="Verdana" font-size="13" lengthAdjust="spacing" textLength="8.271" x="1160.1389" y="494.1359">1</text><text fill="#000000" font-family="Verdana" font-size="13" lengthAdjust="spacing" textLength="8.271" x="1254.731" y="630.3481">1</text></g><!--reverse link FichierSource to PharmacieBrute--><g class="link" data-entity-1="ent0006" data-entity-2="ent0008" data-link-type="composition" data-source-line="133" id="lnk15"><path codeLine="133" d="M945.89,528.6194 C945.89,547.5894 945.89,555.7894 945.89,575.9594" fill="none" id="FichierSource-backto-PharmacieBrute" style="stroke:#000000;stroke-width:1;"/><polygon fill="#000000" points="945.89,516.6194,941.89,522.6194,945.89,528.6194,949.89,522.6194,945.89,516.6194" style="stroke:#000000;stroke-width:1;"/><polygon fill="#000000" points="950.89,542.8558,953.8289,533.8107,947.9511,533.8107,950.89,542.8558" style="stroke:#000000;stroke-width:1;"/><text fill="#000000" font-family="Verdana" font-size="13" lengthAdjust="spacing" textLength="53.3838" x="959.89" y="542.3563">contient</text><text fill="#000000" font-family="Verdana" font-size="13" lengthAdjust="spacing" textLength="8.271" x="930.9497" y="536.1724">1</text><text fill="#000000" font-family="Verdana" font-size="13" lengthAdjust="spacing" textLength="23.0356" x="928.603" y="565.4026">0..*</text></g><!--link PharmacieBrute to Pharmacie--><g class="link" data-entity-1="ent0008" data-entity-2="ent0009" data-link-type="dependency" data-source-line="135" id="lnk16"><path codeLine="135" d="M721.2,897.6094 C721.2,952.4694 721.2,1000.2294 721.2,1000.2294 C721.2,1000.2294 629.86,1000.2294 538.61,1000.2294" fill="none" id="PharmacieBrute-to-Pharmacie" style="stroke:#000000;stroke-width:1;"/><polygon fill="#000000" points="532.61,1000.2294,541.61,1004.2294,537.61,1000.2294,541.61,996.2294,532.61,1000.2294" style="stroke:#000000;stroke-width:1;"/><text fill="#000000" font-family="Verdana" font-size="13" lengthAdjust="spacing" textLength="100.0454" x="570.7417" y="981.2963">Trouve ou Cr&#233;e</text><text fill="#000000" font-family="Verdana" font-size="13" lengthAdjust="spacing" textLength="113.1089" x="564.21" y="996.4291">(D&#233;doublonnage)</text><text fill="#000000" font-family="Verdana" font-size="13" lengthAdjust="spacing" textLength="23.0356" x="693.7318" y="917.307">0..*</text><text fill="#000000" font-family="Verdana" font-size="13" lengthAdjust="spacing" textLength="8.271" x="540.3805" y="993.2142">1</text></g><!--link PharmacieBrute to Garde--><g class="link" data-entity-1="ent0008" data-entity-2="ent0010" data-link-type="dependency" data-source-line="136" id="lnk17"><path codeLine="136" d="M662.86,853.2294 C604.1,853.2294 549.89,853.2294 549.89,853.2294 C549.89,853.2294 549.89,1109.4694 549.89,1250.5794" fill="none" id="PharmacieBrute-to-Garde" style="stroke:#000000;stroke-width:1;"/><polygon fill="#000000" points="549.89,1256.5794,553.89,1247.5794,549.89,1251.5794,545.89,1247.5794,549.89,1256.5794" style="stroke:#000000;stroke-width:1;"/><text fill="#000000" font-family="Verdana" font-size="13" lengthAdjust="spacing" textLength="123.938" x="550.89" y="1011.4863">G&#233;n&#232;re le planning</text><text fill="#000000" font-family="Verdana" font-size="13" lengthAdjust="spacing" textLength="8.271" x="647.1601" y="855.9178">1</text><text fill="#000000" font-family="Verdana" font-size="13" lengthAdjust="spacing" textLength="8.271" x="537.0626" y="1245.7881">1</text></g><!--reverse link Pharmacie to Garde--><g class="link" data-entity-1="ent0009" data-entity-2="ent0010" data-link-type="composition" data-source-line="138" id="lnk18"><path codeLine="138" d="M523.99,1209.2794 C523.99,1229.2094 523.99,1237.5394 523.99,1256.4694" fill="none" id="Pharmacie-backto-Garde" style="stroke:#000000;stroke-width:1;"/><polygon fill="#000000" points="523.99,1197.2794,519.99,1203.2794,523.99,1209.2794,527.99,1203.2794,523.99,1197.2794" style="stroke:#000000;stroke-width:1;"/><text fill="#000000" font-family="Verdana" font-size="13" lengthAdjust="spacing" textLength="43.0942" x="524.99" y="1222.9363">assure</text><text fill="#000000" font-family="Verdana" font-size="13" lengthAdjust="spacing" textLength="8.271" x="524.3036" y="1216.7333">1</text><text fill="#000000" font-family="Verdana" font-size="13" lengthAdjust="spacing" textLength="23.0356" x="493.3869" y="1245.669">0..*</text></g><!--link Ville to Pharmacie--><g class="link" data-entity-1="ent0011" data-entity-2="ent0009" data-link-type="association" data-source-line="139" id="lnk19"><path codeLine="139" d="M98.32,800.0094 C98.32,898.4694 98.32,1077.2294 98.32,1077.2294 C98.32,1077.2294 156.89,1077.2294 220.26,1077.2294" fill="none" id="Ville-Pharmacie" style="stroke:#000000;stroke-width:1;"/><text fill="#000000" font-family="Verdana" font-size="13" lengthAdjust="spacing" textLength="59.3823" x="38.32" y="995.6563">regroupe</text><text fill="#000000" font-family="Verdana" font-size="13" lengthAdjust="spacing" textLength="8.271" x="89.9212" y="819.378">1</text><text fill="#000000" font-family="Verdana" font-size="13" lengthAdjust="spacing" textLength="23.0356" x="189.1445" y="1073.9439">0..*</text></g><!--link Utilisateur to Pharmacie--><g class="link" data-entity-1="ent0012" data-entity-2="ent0009" data-link-type="association" data-source-line="140" id="lnk20"><path codeLine="140" d="M376.32,808.1094 C376.32,851.1794 376.32,907.1794 376.32,956.9194" fill="none" id="Utilisateur-Pharmacie" style="stroke:#000000;stroke-width:1;"/><text fill="#000000" font-family="Verdana" font-size="13" lengthAdjust="spacing" textLength="103.1621" x="272.32" y="878.5863">consulte via API</text><text fill="#000000" font-family="Verdana" font-size="13" lengthAdjust="spacing" textLength="8.271" x="365.6635" y="827.697">1</text><text fill="#000000" font-family="Verdana" font-size="13" lengthAdjust="spacing" textLength="23.0356" x="352.6201" y="946.2116">0..*</text></g><?plantuml-src ZLVDRXit4BxlKx2wH4ugmpdqiWWCoDBAKAB8WdxS70eKzEvOOiCbjoHNi5lqVUA-XbwiGtB_jN5pi9Vc38SpttmpG_za3f02oJXb8j1VcSYeeYc9ETLwR8nY3xc1UIp5Xlq5vAgXmfa0yvm1aSeSP10OPZYGpRCsfszeCG5o2zemAN2foUf0LKfZXaiheGf_ZyYKqJtQykeJUoVAXsCL7vY1sEGAo3WzlN0crUa5BeBW3HcDHYHQxZvlx2e0aQTaYrxC69u1HVuE29bixl7tbyNcY_y4_mHUSMEeoSqgV-0ifiurgtwptcqZ_DwF5_DfP5UtqTtapYzNkvl5tAtMqSTeYwlIcBtLns6DB7VpBNv-ZQ9FqNAAguztk_NlisWzTrQYzUVnCbfEt74Vn6GntcmY7uQ3cuoJb0ccZQ86SX_AYB0a90ifzkuF8TETOPnffn5YG8eL8aWfuwsTL9efh2ochMqbUNFZ7SapBcbI03XyzD-Gp1Y7Yv0S9KkSsf5obe2QIY40TAatBznhQcOMu5gpATg30bLnOPYLgwuPHCbZKhYraRcAuJkGp4gN6r6QcXDXao1UY51P42eZ2UAvSp24P8fhj-bnWMH5swPZh1WcDaR6N-c-ZQrs16kXMy26ExaZj8NZHc8Eg2WGCSk71TiBZzHS642GQW3cQOO5jf3xlk0xIQXYsIgA1PI2C8rukBjaAmtbeEkRQj6zSxLNj8O_m41Nbc0yhRig9tg0m43NeFFK8L3iLr5MbBXHs6zU2TKJOTvXG2i9D560f9_8DEFeT9iMm24xID7UFNewD7Ci4rX9ZA9TKbZtBbKj6B2D8TEnFpLQcy-QsyFoBjCo1UocJg6H5YkOCT7TDcLxyQPQxery9wjiUuurUONzG2bi4RgFYow4BWzJccMWxa7fAXUHztLuLfILHb-YB7IHKB2tdQpWXVU1VFYm4-pF7CWdUBw-VYrvFv0qZXtSv0upYGsdu3XwSRvh8PueS2s_0N5DqivOAFaw1TifT8EmLe1JpUb2NorFf5H9tVYwFAy7HWUriqxO9iqvN_ge4jP3oGVeYcLsrYHS3EFOi6DV22jGJ2QzPNfl2-KxNVX7wcSlyoCe8N72TNj3_K2m5o-GFFMrZPdNkBnXDu4ZyrsXIH0PKtVCPRqXo1GyuXmICRJBGm6sTcL_6iwqUaFfcTN6Dv7EkS4vLx2aRvXLXkgvluuMu-tyRkadVsVc3zuFR7aFhYultmuwmoyi9XAv3jg2yX1-wcaH8gW2e-pLVblVqUcyeOtBCAnQF1XqXCMHqUZQMQdRG4W6MsLpIsHE9lQjzfiOJaylYQr1h0QSanS3ScRkVMtB5mRQkJszYDCtz9kxLwaG2FkWuKdN_-eW4WN7qI3m76q3sV8KMnFwcg5garUl72WpZNE2al5gFYXJkRpR5Wyu8L6isFvWY7nivmt9CfDep6YYyyoF1Hqw8k93bGmlOtsyS7z6Jp5mt7ZY-kbdOZzsV-iUAzYVdqBoonNvBF7vcH1xOT2vjWslVGYNgKpmIki3qmYhHWaJZyudB0qtjVOEHHJ0at7ptErowiU_5IHvEOABjdBv_txWiGN5_oLEBoJtZNy860KsYtUkhAnT98nj5YHv0wsXOKE7D3lzY_LedIO5bxGznANIxjyAvlYkoMEERojTk_GV?></g></svg>